# xmcd
#
# Track frame offsets:
#	150
#	22847
#	41902
#	99016
#	114109
#	143712
#	187801
#	246568
#	263632
#
# Disc length: 3634 seconds
#
# Revision: 1
# Processed by: cddbd v1.5.2PL0 Copyright (c) Steve Scherf et al.
# Submitted via: audiograbber 1.83.01
#
DISCID=680e3009
DTITLE=Grateful Dead - 70-09-18 Fillmore East, New York NY
DYEAR=1900
DGENRE=
TTITLE0=Me and My Uncle
TTITLE1=Operator
TTITLE2=Dancing In The Streets
TTITLE3=Tuning
TTITLE4=St Stephen
TTITLE5=Not Fade Away
TTITLE6=Good Lovin'
TTITLE7=Crowd Noise
TTITLE8=And We Bid You Goodnight
EXTD=
EXTT0=
EXTT1=
EXTT2=
EXTT3=
EXTT4=
EXTT5=
EXTT6=
EXTT7=
EXTT8=
PLAYORDER=
